<?xml version="1.0" encoding="UTF-8"?>
<svg width="300px" height="300px" viewBox="0 0 300 300" version="1.1" xmlns="http://www.w3.org/2000/svg" xmlns:xlink="http://www.w3.org/1999/xlink">
    <!-- Generator: Sketch 55.2 (78181) - https://sketchapp.com -->
    <title>Rectangle</title>
    <desc>Created with Sketch.</desc>
    <g id="Rectangle" stroke="none" stroke-width="1" fill="none" fill-rule="evenodd">
        <rect x="0" y="0" width="300" height="300" rx="8"></rect>
        <path d="M158.96875,56 L162.25,56 C172.171925,56 181.546831,58.499975 190.375,63.5 C190.375,64.0468777 191.937484,65.4531137 195.0625,67.71875 C201.937534,76.2344176 205.375,87.796802 205.375,102.40625 C206.312505,108.578156 207.249995,118.265559 208.1875,131.46875 C208.1875,144.593816 208.343748,159.906162 208.65625,177.40625 C208.343748,193.812582 208.1875,209.437426 208.1875,224.28125 C207.640622,232.093789 206.390635,236 204.4375,236 C201.078108,241.625028 198.421885,244.4375 196.46875,244.4375 L168.34375,244.4375 C163.968728,244.4375 161.78125,238.187563 161.78125,225.6875 C160.921871,204.437394 159.359386,193.8125 157.09375,193.8125 C156.07812,192.562494 154.515636,191.9375 152.40625,191.9375 L146.78125,191.9375 C143.656234,191.9375 142.09375,194.749972 142.09375,200.375 C141.781248,203.109389 141.625,204.671873 141.625,205.0625 C141.625,206.937509 142.249994,215.218677 143.5,229.90625 C143.5,232.875015 140.53128,236.781226 134.59375,241.625 C131.859361,242.250003 129.98438,242.5625 128.96875,242.5625 C127.640618,242.5625 126.078134,242.250003 124.28125,241.625 C121.468736,242.250003 119.437506,242.5625 118.1875,242.5625 C116.937494,242.5625 114.906264,242.250003 112.09375,241.625 C109.281236,242.250003 107.250006,242.5625 106,242.5625 C96.3124516,242.015622 91.46875,240.765635 91.46875,238.8125 C91.46875,238.109371 91.3125016,237.484378 91,236.9375 L91.46875,232.71875 C91.46875,230.921866 91.3125016,229.828127 91,229.4375 C91.3125016,225.062478 91.46875,221.312516 91.46875,218.1875 L91.46875,206.9375 C91.46875,204.437487 91.6249984,201.468767 91.9375,198.03125 L91.46875,197.09375 C92.0937531,192.796854 92.40625,185.296929 92.40625,174.59375 L92.40625,172.25 C92.40625,171.546871 92.5624984,170.921878 92.875,170.375 C92.5624984,169.828122 92.40625,169.203129 92.40625,168.5 L92.40625,165.6875 C92.40625,164.984371 92.5624984,164.359378 92.875,163.8125 C92.5624984,163.265622 92.40625,162.640629 92.40625,161.9375 L92.40625,160.0625 C92.40625,158.734368 92.5624984,157.484381 92.875,156.3125 C92.5624984,155.062494 92.40625,153.968755 92.40625,153.03125 C92.40625,152.718748 92.5624984,152.250003 92.875,151.625 C92.2499969,149.984367 91.9375,148.734379 91.9375,147.875 C91.9375,147.093746 92.0937484,144.75002 92.40625,140.84375 C92.40625,140.453123 92.0937531,138.73439 91.46875,135.6875 C91.46875,135.374998 91.6249984,134.125011 91.9375,131.9375 L91.46875,127.71875 C91.7812516,124.984361 91.9375,122.640635 91.9375,120.6875 C91.6249984,119.593745 91.46875,118.968751 91.46875,118.8125 C92.3281293,116.624989 93.1093715,111.312542 93.8125,102.875 C93.8125,101.078116 95.0624875,96.3906629 97.5625,88.8125 C99.0468824,83.5780988 102.484348,77.4844098 107.875,70.53125 C112.95315,66.3906043 119.828082,62.9531387 128.5,60.21875 C143.968827,57.4062359 154.124976,56 158.96875,56 Z M108.34375,82.71875 C108.34375,88.0312766 108.499998,93.3437234 108.8125,98.65625 C108.499998,106.000037 108.34375,111.468732 108.34375,115.0625 C108.34375,115.921879 108.499998,119.046848 108.8125,124.4375 C108.499998,126.156259 108.34375,127.5625 108.34375,128.65625 C108.34375,129.281253 108.499998,129.59375 108.8125,129.59375 L108.34375,134.28125 L108.34375,142.25 C108.34375,143.734382 108.499998,145.296867 108.8125,146.9375 C108.499998,148.187506 108.34375,149.281245 108.34375,150.21875 C108.34375,151.468756 108.499998,152.718744 108.8125,153.96875 C108.499998,156.703139 108.34375,159.046865 108.34375,161 L108.34375,167.5625 C108.34375,169.203133 108.187502,170.609369 107.875,171.78125 C108.187502,173.421883 108.34375,174.984368 108.34375,176.46875 L108.34375,189.125 C108.34375,192.093765 108.187502,195.062485 107.875,198.03125 C108.187502,199.671883 108.34375,201.546864 108.34375,203.65625 L107.875,210.21875 C108.187502,212.328136 108.34375,214.046868 108.34375,215.375 C108.031248,218.500016 107.875,220.843742 107.875,222.40625 C108.500003,224.906263 109.593742,226.15625 111.15625,226.15625 C113.343761,226.15625 116.781227,226.000002 121.46875,225.6875 C126.703151,226.000002 130.765611,226.15625 133.65625,226.15625 C135.531259,225.453121 136.624998,224.515631 136.9375,223.34375 C136.312497,212.171819 136,205.453136 136,203.1875 C136.625003,191.624942 137.718742,185.84375 139.28125,185.84375 C143.18752,180.531223 147.874973,177.875 153.34375,177.875 L153.8125,177.875 C166.625064,179.750009 173.03125,181.781239 173.03125,183.96875 C174.437507,183.96875 175.999991,191.312427 177.71875,206 L177.71875,223.34375 C177.71875,226.468766 178.968737,228.03125 181.46875,228.03125 L187.09375,228.03125 C188.265631,228.03125 191.859345,228.499995 197.875,229.4375 C199.515633,229.4375 200.765621,227.250022 201.625,222.875 C201.625,221.85937 201.468752,221.078128 201.15625,220.53125 C201.468752,213.187463 201.937497,207.875016 202.5625,204.59375 C202.5625,201.156233 202.718748,191.312581 203.03125,175.0625 C202.718748,159.9843 202.5625,150.609393 202.5625,146.9375 L200.21875,120.21875 C199.984374,98.0311391 199.046883,86.9375 197.40625,86.9375 C197.40625,80.6874687 192.875045,74.1250344 183.8125,67.25 C178.421848,64.4374859 172.171911,63.03125 165.0625,63.03125 C165.0625,62.7187484 164.906252,62.5625 164.59375,62.5625 C138.968622,62.5625 121.468797,66.9374563 112.09375,75.6875 C109.593737,78.6562648 108.34375,80.9999914 108.34375,82.71875 Z M157.09375,89.75 L158.03125,89.75 C167.093795,91.0000062 171.625,92.7187391 171.625,94.90625 C174.125013,94.90625 175.375,100.687442 175.375,112.25 C175.687502,112.25 175.84375,112.718745 175.84375,113.65625 C175.531248,116.312513 175.375,118.499991 175.375,120.21875 L175.84375,123.5 C175.531248,124.75 175.375,125.843745 175.375,126.78125 C175.375,127.484379 175.531248,129.203111 175.84375,131.9375 C174.906245,136.468773 174.281252,140.68748 173.96875,144.59375 C170.374982,149.593775 164.125045,152.09375 155.21875,152.09375 C144.593697,149.515612 139.28125,145.296904 139.28125,139.4375 C138.968748,138.734371 138.500003,136.85939 137.875,133.8125 C139.125006,108.187372 140.531242,95.375 142.09375,95.375 C145.14064,92.9531129 150.14059,91.0781316 157.09375,89.75 Z M160.84375,100.0625 L164.59375,104.28125 C164.59375,105.531256 164.749998,106.78125 165.0625,108.03125 L166.46875,108.03125 C167.718756,107.640623 168.34375,106.234387 168.34375,103.8125 C165.921863,103.031246 164.515627,102.093755 164.125,101 L164.59375,97.71875 C163.656245,97.4062484 163.1875,97.0937516 163.1875,96.78125 C161.624992,97.2500023 160.84375,98.3437414 160.84375,100.0625 Z M99.4375,100.0625 L99.4375,101 L100.84375,101 L100.84375,99.125 L100.375,99.125 C99.7499969,99.2031254 99.4375,99.5156223 99.4375,100.0625 Z M145.375,106.15625 C145.062498,116.390676 144.90625,124.359346 144.90625,130.0625 L144.90625,134.75 C144.90625,138.734395 148.187467,142.015612 154.75,144.59375 C156.312508,144.59375 157.874992,141.312533 159.4375,134.75 C160.062503,132.249987 160.375,129.281267 160.375,125.84375 L160.375,120.6875 C160.375,110.296823 156.937534,104.046886 150.0625,101.9375 L149.125,101.9375 C147.171865,103.109381 145.921878,104.515617 145.375,106.15625 Z M98.5,114.125 C98.6562508,114.125 99.1249961,114.437497 99.90625,115.0625 C100.843755,115.0625 101.624997,113.187519 102.25,109.4375 L101.3125,107.5625 C99.4374906,107.5625 98.5,109.749978 98.5,114.125 Z M166,114.125 L166,115.53125 C166,116.000002 166.468745,116.468748 167.40625,116.9375 L167.875,116.9375 C169.125006,116.390622 169.75,115.296883 169.75,113.65625 L169.75,112.71875 C169.75,112.093747 169.437503,111.78125 168.8125,111.78125 L168.34375,111.78125 C167.953123,111.78125 167.171881,112.562492 166,114.125 Z M98.5,126.78125 L98.5,130.0625 C98.5,130.531252 98.9687453,130.999998 99.90625,131.46875 C101,131.46875 101.781248,128.656278 102.25,123.03125 C101.781248,121.781244 101.312502,121.15625 100.84375,121.15625 L100.375,121.15625 C99.1249938,121.15625 98.5,123.031231 98.5,126.78125 Z M166.9375,123.96875 L168.34375,124.90625 C169.593756,124.437498 170.21875,123.968752 170.21875,123.5 C169.749998,122.249994 169.281252,121.625 168.8125,121.625 L168.34375,121.625 C167.640621,121.625 167.171876,122.406242 166.9375,123.96875 Z M165.53125,134.75 L166.46875,135.21875 L167.40625,135.21875 C168.968758,134.593747 169.75,133.500008 169.75,131.9375 L169.75,131 C169.75,130.374997 169.437503,130.0625 168.8125,130.0625 C166.859365,131.546882 165.765626,133.109367 165.53125,134.75 Z M98.5,141.78125 L98.5,143.1875 C98.5,143.656252 98.9687453,144.124998 99.90625,144.59375 C100.375002,144.59375 100.843748,144.125005 101.3125,143.1875 L101.3125,138.96875 C101.3125,138.343747 101,138.03125 100.375,138.03125 L99.90625,138.03125 C98.9687453,138.187501 98.5,139.437488 98.5,141.78125 Z M164.125,142.71875 L164.125,144.125 L165.53125,144.125 C166.000002,144.125 166.625,143.500006 167.40625,142.25 L167.40625,140.84375 L166,140.84375 C165.531248,140.84375 164.906254,141.468744 164.125,142.71875 Z M98.5,156.3125 L98.5,157.71875 C98.5,158.1875 98.9687453,158.656248 99.90625,159.125 C100.843755,158.812498 101.3125,157.875008 101.3125,156.3125 L101.3125,151.625 C101.3125,150.999997 101,150.6875 100.375,150.6875 C99.1249938,150.6875 98.5,152.562481 98.5,156.3125 Z M98.5,167.5625 L98.5,169.90625 C98.7343762,171.781259 99.2031215,172.71875 99.90625,172.71875 C100.843755,172.406248 101.3125,171.468758 101.3125,169.90625 L101.3125,167.09375 C101.3125,166.468747 101,166.15625 100.375,166.15625 L99.90625,166.15625 C99.4374977,166.15625 98.9687523,166.624995 98.5,167.5625 Z M98.5,181.625 L98.5,187.71875 C98.5781254,188.343753 98.8906223,188.65625 99.4375,188.65625 L99.90625,188.65625 C100.375002,188.65625 100.843748,188.187505 101.3125,187.25 L101.3125,179.75 C101.3125,179.124997 101,178.8125 100.375,178.8125 L99.90625,178.8125 C98.9687453,179.125002 98.5,180.062492 98.5,181.625 Z M159.90625,185.84375 L159.90625,187.25 C159.90625,187.718752 160.843741,188.656243 162.71875,190.0625 L163.1875,190.0625 C164.750008,189.281246 165.53125,188.031259 165.53125,186.3125 C164.51562,185.687497 163.578129,185.375 162.71875,185.375 L162.25,185.375 L159.90625,185.84375 Z M165.0625,196.15625 C165.375002,197.718758 165.999995,198.5 166.9375,198.5 C168.96876,197.718746 170.0625,196.937504 170.21875,196.15625 L170.21875,194.75 C170.21875,192.249987 169.593756,191 168.34375,191 C167.093744,191 166.000005,192.718733 165.0625,196.15625 Z M98.5,197.09375 L98.5,202.71875 L99.4375,204.125 C100.062503,203.812498 100.531248,203.65625 100.84375,203.65625 C101.156252,200.531234 101.3125,198.1875 101.3125,196.625 C101.3125,195.999997 101,195.6875 100.375,195.6875 L99.90625,195.6875 C99.4374977,195.6875 98.9687523,196.156245 98.5,197.09375 Z M166.9375,207.875 L168.34375,210.21875 C169.906258,210.21875 170.6875,208.18752 170.6875,204.125 C170.6875,203.656248 170.218755,203.187502 169.28125,202.71875 L168.8125,202.71875 C167.562494,203.031252 166.9375,204.749984 166.9375,207.875 Z M98.5,212.5625 L98.5,216.3125 C98.5781254,216.937503 98.8906223,217.25 99.4375,217.25 L99.90625,217.25 C100.843755,217.25 101.3125,215.531267 101.3125,212.09375 C101.3125,211.546872 101,210.76563 100.375,209.75 C99.1249938,210.062502 98.5,210.999992 98.5,212.5625 Z M167.40625,218.1875 L167.40625,220.0625 C167.640626,221.937509 168.109371,222.875 168.8125,222.875 L169.28125,222.875 C170.140629,222.875 170.765623,221.312516 171.15625,218.1875 L171.15625,217.71875 L170.6875,215.375 L168.8125,215.375 C167.874995,215.687502 167.40625,216.624992 167.40625,218.1875 Z M98.5,226.15625 L98.5,229.90625 C98.5781254,230.531253 98.8906223,230.84375 99.4375,230.84375 L99.90625,230.84375 C100.375002,230.84375 100.843748,230.375005 101.3125,229.4375 L101.3125,226.15625 C101.3125,225.296871 101,224.35938 100.375,223.34375 C99.1249938,223.656252 98.5,224.593742 98.5,226.15625 Z M168.34375,229.90625 L168.34375,231.3125 L169.75,231.3125 C170.375003,231.3125 170.6875,231 170.6875,230.375 L170.6875,229.4375 C170.6875,228.812497 170.375003,228.5 169.75,228.5 C169.281248,228.5 168.812502,228.968745 168.34375,229.90625 Z M105.0625,235.53125 C105.140625,236.156253 105.453122,236.46875 106,236.46875 L106.9375,236.46875 C110.062516,235.921872 111.625,234.671885 111.625,232.71875 C110.60937,232.093747 109.671879,231.78125 108.8125,231.78125 C106.312487,232.015626 105.0625,233.265614 105.0625,235.53125 Z M115.84375,235.0625 L115.84375,235.53125 C115.921875,236.156253 116.234372,236.46875 116.78125,236.46875 L118.65625,236.46875 C122.093767,235.687496 123.8125,234.593757 123.8125,233.1875 L121,231.78125 C119.203116,231.78125 117.484383,232.874989 115.84375,235.0625 Z M128.03125,235.53125 L128.96875,236 L130.375,236 C132.093759,236 133.187498,235.375006 133.65625,234.125 L133.65625,232.25 L131.3125,231.78125 C129.437491,231.78125 128.343752,233.031237 128.03125,235.53125 Z M181.46875,236 C181.781252,237.250006 182.718742,237.875 184.28125,237.875 C187.406266,237.640624 188.96875,237.01563 188.96875,236 C188.96875,235.531248 188.500005,235.062502 187.5625,234.59375 L184.75,234.59375 C183.73437,234.59375 182.640631,235.062495 181.46875,236 Z M174.4375,236 L174.4375,236.9375 L175.84375,236.9375 C176.468753,236.9375 176.78125,236.625003 176.78125,236 C176.78125,235.374997 176.468753,235.0625 175.84375,235.0625 L175.375,235.0625 C174.749997,235.140625 174.4375,235.453122 174.4375,236 Z M194.59375,236.46875 L194.59375,237.40625 L195.53125,237.40625 C196.156253,237.40625 196.46875,237.093753 196.46875,236.46875 C196.46875,235.843747 196.156253,235.53125 195.53125,235.53125 C194.906247,235.609375 194.59375,235.921872 194.59375,236.46875 Z" id="A" fill="#4A4A4A" fill-rule="nonzero"></path>
    </g>
</svg>